<svg xmlns="http://www.w3.org/2000/svg" width="320" height="320" viewBox="0 0 320 320" fill="none" stroke="#000" stroke-width="1.1" stroke-linecap="round"><line x1="0.0" y1="0.0" x2="377.6" y2="0.0"></line><line x1="0.0" y1="0.0" x2="368.1" y2="84.0"></line><line x1="0.0" y1="0.0" x2="340.2" y2="163.8"></line><line x1="0.0" y1="0.0" x2="295.2" y2="235.4"></line><line x1="0.0" y1="0.0" x2="235.4" y2="295.2"></line><line x1="0.0" y1="0.0" x2="163.8" y2="340.2"></line><line x1="0.0" y1="0.0" x2="84.0" y2="368.1"></line><line x1="0.0" y1="0.0" x2="0.0" y2="377.6"></line><path d="M51.0 0.0 Q47.2 5.3 49.7 11.4"></path><path d="M49.7 11.4 Q44.8 15.7 46.0 22.1"></path><path d="M46.0 22.1 Q40.2 25.2 39.9 31.8"></path><path d="M39.9 31.8 Q33.6 33.6 31.8 39.9"></path><path d="M31.8 39.9 Q25.2 40.2 22.1 46.0"></path><path d="M22.1 46.0 Q15.7 44.8 11.4 49.7"></path><path d="M11.4 49.7 Q5.3 47.2 0.0 51.0"></path><path d="M102.1 0.0 Q94.3 10.6 99.5 22.7"></path><path d="M99.5 22.7 Q89.6 31.3 91.9 44.3"></path><path d="M91.9 44.3 Q80.4 50.5 79.8 63.6"></path><path d="M79.8 63.6 Q67.1 67.1 63.6 79.8"></path><path d="M63.6 79.8 Q50.5 80.4 44.3 91.9"></path><path d="M44.3 91.9 Q31.3 89.6 22.7 99.5"></path><path d="M22.7 99.5 Q10.6 94.3 0.0 102.1"></path><path d="M153.1 0.0 Q141.5 15.9 149.2 34.1"></path><path d="M149.2 34.1 Q134.4 47.0 137.9 66.4"></path><path d="M137.9 66.4 Q120.5 75.7 119.7 95.4"></path><path d="M119.7 95.4 Q100.7 100.7 95.4 119.7"></path><path d="M95.4 119.7 Q75.7 120.5 66.4 137.9"></path><path d="M66.4 137.9 Q47.0 134.4 34.1 149.2"></path><path d="M34.1 149.2 Q15.9 141.5 0.0 153.1"></path><path d="M204.1 0.0 Q188.6 21.3 199.0 45.4"></path><path d="M199.0 45.4 Q179.2 62.7 183.9 88.6"></path><path d="M183.9 88.6 Q160.7 101.0 159.6 127.3"></path><path d="M159.6 127.3 Q134.2 134.2 127.3 159.6"></path><path d="M127.3 159.6 Q101.0 160.7 88.6 183.9"></path><path d="M88.6 183.9 Q62.7 179.2 45.4 199.0"></path><path d="M45.4 199.0 Q21.3 188.6 0.0 204.1"></path><path d="M255.1 0.0 Q235.8 26.6 248.7 56.8"></path><path d="M248.7 56.8 Q224.0 78.4 229.9 110.7"></path><path d="M229.9 110.7 Q200.9 126.2 199.5 159.1"></path><path d="M199.5 159.1 Q167.8 167.8 159.1 199.5"></path><path d="M159.1 199.5 Q126.2 200.9 110.7 229.9"></path><path d="M110.7 229.9 Q78.4 224.0 56.8 248.7"></path><path d="M56.8 248.7 Q26.6 235.8 0.0 255.1"></path><path d="M306.2 0.0 Q282.9 31.9 298.5 68.1"></path><path d="M298.5 68.1 Q268.8 94.0 275.8 132.8"></path><path d="M275.8 132.8 Q241.1 151.5 239.4 190.9"></path><path d="M239.4 190.9 Q201.3 201.3 190.9 239.4"></path><path d="M190.9 239.4 Q151.5 241.1 132.8 275.8"></path><path d="M132.8 275.8 Q94.0 268.8 68.1 298.5"></path><path d="M68.1 298.5 Q31.9 282.9 0.0 306.2"></path><path d="M357.2 0.0 Q330.1 37.2 348.2 79.5"></path><path d="M348.2 79.5 Q313.5 109.7 321.8 155.0"></path><path d="M321.8 155.0 Q281.3 176.7 279.3 222.7"></path><path d="M279.3 222.7 Q234.9 234.9 222.7 279.3"></path><path d="M222.7 279.3 Q176.7 281.3 155.0 321.8"></path><path d="M155.0 321.8 Q109.7 313.5 79.5 348.2"></path><path d="M79.5 348.2 Q37.2 330.1 0.0 357.2"></path></svg>