<svg xmlns="http://www.w3.org/2000/svg" width="640" height="640" viewBox="0 0 640 640" fill="none" stroke="#ffffff" stroke-width="1" stroke-linecap="round"><line x1="640.0" y1="0.0" x2="640.0" y2="755.2"></line><line x1="640.0" y1="0.0" x2="508.9" y2="743.7"></line><line x1="640.0" y1="0.0" x2="381.7" y2="709.7"></line><line x1="640.0" y1="0.0" x2="262.4" y2="654.0"></line><line x1="640.0" y1="0.0" x2="154.6" y2="578.5"></line><line x1="640.0" y1="0.0" x2="61.5" y2="485.4"></line><line x1="640.0" y1="0.0" x2="-14.0" y2="377.6"></line><line x1="640.0" y1="0.0" x2="-69.7" y2="258.3"></line><line x1="640.0" y1="0.0" x2="-103.7" y2="131.1"></line><line x1="640.0" y1="0.0" x2="-115.2" y2="0.0"></line><path d="M640.0 80.3 Q633.5 74.4 626.0 79.1"></path><path d="M626.0 79.1 Q620.7 72.2 612.5 75.5"></path><path d="M612.5 75.5 Q608.4 67.7 599.8 69.6"></path><path d="M599.8 69.6 Q597.1 61.2 588.4 61.5"></path><path d="M588.4 61.5 Q587.2 52.8 578.5 51.6"></path><path d="M578.5 51.6 Q578.8 42.9 570.4 40.2"></path><path d="M570.4 40.2 Q572.3 31.6 564.5 27.5"></path><path d="M564.5 27.5 Q567.8 19.3 560.9 14.0"></path><path d="M560.9 14.0 Q565.6 6.5 559.7 0.0"></path><path d="M640.0 160.7 Q627.0 148.9 612.1 158.2"></path><path d="M612.1 158.2 Q601.3 144.3 585.0 151.0"></path><path d="M585.0 151.0 Q576.8 135.4 559.7 139.2"></path><path d="M559.7 139.2 Q554.3 122.4 536.7 123.1"></path><path d="M536.7 123.1 Q534.3 105.7 516.9 103.3"></path><path d="M516.9 103.3 Q517.6 85.7 500.8 80.3"></path><path d="M500.8 80.3 Q504.6 63.2 489.0 55.0"></path><path d="M489.0 55.0 Q495.7 38.7 481.8 27.9"></path><path d="M481.8 27.9 Q491.1 13.0 479.3 0.0"></path><path d="M640.0 241.0 Q620.5 223.3 598.1 237.4"></path><path d="M598.1 237.4 Q582.0 216.5 557.6 226.5"></path><path d="M557.6 226.5 Q545.3 203.1 519.5 208.7"></path><path d="M519.5 208.7 Q511.4 183.6 485.1 184.6"></path><path d="M485.1 184.6 Q481.5 158.5 455.4 154.9"></path><path d="M455.4 154.9 Q456.4 128.6 431.3 120.5"></path><path d="M431.3 120.5 Q436.9 94.7 413.5 82.4"></path><path d="M413.5 82.4 Q423.5 58.0 402.6 41.9"></path><path d="M402.6 41.9 Q416.7 19.5 399.0 0.0"></path><path d="M640.0 321.4 Q614.0 297.7 584.2 316.5"></path><path d="M584.2 316.5 Q562.6 288.7 530.1 302.0"></path><path d="M530.1 302.0 Q513.7 270.9 479.3 278.3"></path><path d="M479.3 278.3 Q468.6 244.8 433.4 246.2"></path><path d="M433.4 246.2 Q428.7 211.3 393.8 206.6"></path><path d="M393.8 206.6 Q395.2 171.4 361.7 160.7"></path><path d="M361.7 160.7 Q369.1 126.3 338.0 109.9"></path><path d="M338.0 109.9 Q351.3 77.4 323.5 55.8"></path><path d="M323.5 55.8 Q342.3 26.0 318.6 0.0"></path><path d="M640.0 401.7 Q607.4 372.2 570.2 395.6"></path><path d="M570.2 395.6 Q543.3 360.9 502.6 377.5"></path><path d="M502.6 377.5 Q482.1 338.6 439.1 347.9"></path><path d="M439.1 347.9 Q425.7 306.0 381.8 307.7"></path><path d="M381.8 307.7 Q375.8 264.2 332.3 258.2"></path><path d="M332.3 258.2 Q334.0 214.3 292.1 200.9"></path><path d="M292.1 200.9 Q301.4 157.9 262.5 137.4"></path><path d="M262.5 137.4 Q279.1 96.7 244.4 69.8"></path><path d="M244.4 69.8 Q267.8 32.6 238.3 0.0"></path><path d="M640.0 482.0 Q600.9 446.6 556.3 474.7"></path><path d="M556.3 474.7 Q524.0 433.0 475.1 453.0"></path><path d="M475.1 453.0 Q450.5 406.3 399.0 417.5"></path><path d="M399.0 417.5 Q382.9 367.2 330.1 369.3"></path><path d="M330.1 369.3 Q323.0 317.0 270.7 309.9"></path><path d="M270.7 309.9 Q272.8 257.1 222.5 241.0"></path><path d="M222.5 241.0 Q233.7 189.5 187.0 164.9"></path><path d="M187.0 164.9 Q207.0 116.0 165.3 83.7"></path><path d="M165.3 83.7 Q193.4 39.1 158.0 0.0"></path><path d="M640.0 562.4 Q594.4 521.0 542.3 553.8"></path><path d="M542.3 553.8 Q504.6 505.2 447.7 528.5"></path><path d="M447.7 528.5 Q419.0 474.0 358.8 487.0"></path><path d="M358.8 487.0 Q340.0 428.4 278.5 430.8"></path><path d="M278.5 430.8 Q270.2 369.8 209.2 361.5"></path><path d="M209.2 361.5 Q211.6 300.0 153.0 281.2"></path><path d="M153.0 281.2 Q166.0 221.0 111.5 192.3"></path><path d="M111.5 192.3 Q134.8 135.4 86.2 97.7"></path><path d="M86.2 97.7 Q119.0 45.6 77.6 0.0"></path><path d="M640.0 642.7 Q587.9 595.5 528.4 633.0"></path><path d="M528.4 633.0 Q485.3 577.4 420.2 604.0"></path><path d="M420.2 604.0 Q387.4 541.7 318.6 556.6"></path><path d="M318.6 556.6 Q297.2 489.6 226.9 492.4"></path><path d="M226.9 492.4 Q217.3 422.7 147.6 413.1"></path><path d="M147.6 413.1 Q150.4 342.8 83.4 321.4"></path><path d="M83.4 321.4 Q98.3 252.6 36.0 219.8"></path><path d="M36.0 219.8 Q62.6 154.7 7.0 111.6"></path><path d="M7.0 111.6 Q44.5 52.1 -2.7 0.0"></path><path d="M640.0 723.1 Q581.4 669.9 514.4 712.1"></path><path d="M514.4 712.1 Q466.0 649.5 392.7 679.5"></path><path d="M392.7 679.5 Q355.8 609.4 278.5 626.2"></path><path d="M278.5 626.2 Q254.3 550.8 175.2 553.9"></path><path d="M175.2 553.9 Q164.5 475.5 86.1 464.8"></path><path d="M86.1 464.8 Q89.2 385.7 13.8 361.5"></path><path d="M13.8 361.5 Q30.6 284.2 -39.5 247.3"></path><path d="M-39.5 247.3 Q-9.5 174.0 -72.1 125.6"></path><path d="M-72.1 125.6 Q-29.9 58.6 -83.1 0.0"></path><circle cx="640.0" cy="0.0" r="1.6" fill="#ffffff" stroke="none"></circle></svg>