<svg xmlns="http://www.w3.org/2000/svg" viewBox="0 0 300 300" role="img" aria-label="Spider Construction LLC"><g fill="#C1121F" transform="translate(0,-6)"><path d="M153.3 141.8 L158.1 137.1 L163.0 132.9 L167.7 129.0 L172.5 125.4 L177.1 122.1 L181.8 119.1 L186.3 116.5 L190.9 114.2 L195.3 112.2 L199.7 110.5 L204.1 109.1 L208.4 108.0 L212.7 107.2 L217.0 106.7 L221.2 106.6 L225.3 106.8 L229.5 107.3 L233.6 108.1 L237.7 109.2 L241.7 110.6 L242.3 109.4 L238.3 107.5 L234.2 106.0 L230.0 104.8 L225.7 104.0 L221.3 103.4 L216.9 103.2 L212.3 103.3 L207.7 103.7 L203.0 104.5 L198.3 105.5 L193.4 107.0 L188.5 108.7 L183.5 110.8 L178.5 113.2 L173.4 115.9 L168.2 119.0 L162.9 122.3 L157.6 126.0 L152.2 130.0 L146.7 134.2 Z"></path><path d="M153.3 134.2 L147.8 130.0 L142.4 126.0 L137.1 122.3 L131.8 119.0 L126.6 115.9 L121.5 113.2 L116.5 110.8 L111.5 108.7 L106.6 107.0 L101.7 105.5 L97.0 104.5 L92.3 103.7 L87.7 103.3 L83.1 103.2 L78.7 103.4 L74.3 104.0 L70.0 104.8 L65.8 106.0 L61.7 107.5 L57.7 109.4 L58.3 110.6 L62.3 109.2 L66.4 108.1 L70.5 107.3 L74.7 106.8 L78.8 106.6 L83.0 106.7 L87.3 107.2 L91.6 108.0 L95.9 109.1 L100.3 110.5 L104.7 112.2 L109.1 114.2 L113.7 116.5 L118.2 119.1 L122.9 122.1 L127.5 125.4 L132.3 129.0 L137.0 132.9 L141.9 137.1 L146.7 141.8 Z"></path><path d="M150.0 143.0 L156.5 142.7 L162.9 142.4 L169.2 142.3 L175.3 142.2 L181.4 142.1 L187.3 142.1 L193.1 142.2 L198.8 142.2 L204.4 142.4 L209.8 142.6 L215.1 142.8 L220.4 143.0 L225.5 143.3 L230.4 143.7 L235.3 144.1 L240.0 144.5 L244.7 145.0 L249.2 145.5 L253.6 146.1 L257.9 146.7 L258.1 145.3 L253.9 144.4 L249.5 143.4 L245.0 142.6 L240.4 141.7 L235.7 140.9 L230.8 140.1 L225.9 139.4 L220.8 138.7 L215.5 138.1 L210.2 137.4 L204.7 136.9 L199.1 136.3 L193.4 135.8 L187.6 135.3 L181.6 134.9 L175.5 134.5 L169.3 134.1 L163.0 133.7 L156.6 133.4 L150.0 133.0 Z"></path><path d="M150.0 133.0 L143.4 133.4 L137.0 133.7 L130.7 134.1 L124.5 134.5 L118.4 134.9 L112.4 135.3 L106.6 135.8 L100.9 136.3 L95.3 136.9 L89.8 137.4 L84.5 138.1 L79.2 138.7 L74.1 139.4 L69.2 140.1 L64.3 140.9 L59.6 141.7 L55.0 142.6 L50.5 143.4 L46.1 144.4 L41.9 145.3 L42.1 146.7 L46.4 146.1 L50.8 145.5 L55.3 145.0 L60.0 144.5 L64.7 144.1 L69.6 143.7 L74.5 143.3 L79.6 143.0 L84.9 142.8 L90.2 142.6 L95.6 142.4 L101.2 142.2 L106.9 142.2 L112.7 142.1 L118.6 142.1 L124.7 142.2 L130.8 142.3 L137.1 142.4 L143.5 142.7 L150.0 143.0 Z"></path><path d="M147.3 141.9 L153.7 145.8 L159.9 149.6 L166.0 153.3 L172.0 156.9 L177.9 160.3 L183.7 163.6 L189.4 166.8 L195.0 169.9 L200.4 172.8 L205.8 175.6 L211.1 178.3 L216.2 180.9 L221.3 183.3 L226.2 185.6 L231.1 187.8 L235.8 189.8 L240.5 191.7 L245.0 193.5 L249.4 195.1 L253.7 196.7 L254.3 195.3 L250.1 193.5 L245.8 191.6 L241.4 189.5 L237.0 187.3 L232.4 185.0 L227.8 182.5 L223.0 179.9 L218.2 177.2 L213.2 174.3 L208.2 171.4 L203.1 168.2 L197.8 165.0 L192.5 161.6 L187.1 158.1 L181.6 154.4 L176.0 150.7 L170.3 146.7 L164.5 142.7 L158.6 138.5 L152.7 134.1 Z"></path><path d="M147.3 134.1 L141.4 138.5 L135.5 142.7 L129.7 146.7 L124.0 150.7 L118.4 154.4 L112.9 158.1 L107.5 161.6 L102.2 165.0 L96.9 168.2 L91.8 171.4 L86.8 174.3 L81.8 177.2 L77.0 179.9 L72.2 182.5 L67.6 185.0 L63.0 187.3 L58.6 189.5 L54.2 191.6 L49.9 193.5 L45.7 195.3 L46.3 196.7 L50.6 195.1 L55.0 193.5 L59.5 191.7 L64.2 189.8 L68.9 187.8 L73.8 185.6 L78.7 183.3 L83.8 180.9 L88.9 178.3 L94.2 175.6 L99.6 172.8 L105.0 169.9 L110.6 166.8 L116.3 163.6 L122.1 160.3 L128.0 156.9 L134.0 153.3 L140.1 149.6 L146.3 145.8 L152.7 141.9 Z"></path><path d="M146.1 140.2 L150.6 147.4 L155.0 154.4 L159.4 161.2 L163.8 167.7 L168.1 174.1 L172.5 180.2 L176.8 186.1 L181.1 191.8 L185.4 197.2 L189.7 202.5 L193.9 207.5 L198.2 212.3 L202.4 216.8 L206.6 221.2 L210.8 225.3 L215.0 229.2 L219.2 232.9 L223.3 236.3 L227.5 239.6 L231.6 242.6 L232.4 241.4 L228.5 238.2 L224.6 234.8 L220.7 231.1 L216.8 227.3 L212.9 223.2 L209.0 218.9 L205.1 214.4 L201.2 209.7 L197.3 204.7 L193.3 199.5 L189.4 194.2 L185.5 188.6 L181.5 182.7 L177.6 176.7 L173.6 170.4 L169.7 164.0 L165.7 157.3 L161.7 150.3 L157.8 143.2 L153.9 135.8 Z"></path><path d="M146.1 135.8 L142.2 143.2 L138.3 150.3 L134.3 157.3 L130.3 164.0 L126.4 170.4 L122.4 176.7 L118.5 182.7 L114.5 188.6 L110.6 194.2 L106.7 199.5 L102.7 204.7 L98.8 209.7 L94.9 214.4 L91.0 218.9 L87.1 223.2 L83.2 227.3 L79.3 231.1 L75.4 234.8 L71.5 238.2 L67.6 241.4 L68.4 242.6 L72.5 239.6 L76.7 236.3 L80.8 232.9 L85.0 229.2 L89.2 225.3 L93.4 221.2 L97.6 216.8 L101.8 212.3 L106.1 207.5 L110.3 202.5 L114.6 197.2 L118.9 191.8 L123.2 186.1 L127.5 180.2 L131.9 174.1 L136.2 167.7 L140.6 161.2 L145.0 154.4 L149.4 147.4 L153.9 140.2 Z"></path><ellipse cx="150" cy="180" rx="22" ry="29"></ellipse><ellipse cx="150" cy="140" rx="13.5" ry="16.5"></ellipse></g></svg>